<svg aria-hidden="true" style="position: absolute; width: 0; height: 0; overflow: hidden;" version="1.1" xmlns="http://www.w3.org/2000/svg" xmlns:xlink="http://www.w3.org/1999/xlink">
<defs>
<symbol id="icon-like" viewBox="0 0 32 32">
<path d="M32 19c0-0.801-0.319-1.548-0.868-2.099 0.623-0.681 0.94-1.595 0.853-2.545-0.156-1.695-1.683-3.023-3.477-3.023h-8.236c0.408-1.239 1.061-3.509 1.061-5.333 0-2.892-2.457-5.333-4-5.333-1.384 0-2.375 0.78-2.416 0.812-0.159 0.127-0.251 0.319-0.251 0.521v4.521l-3.841 8.319-0.159 0.081v-0.255c0-0.368-0.299-0.667-0.667-0.667h-6.667c-1.839 0-3.333 1.495-3.333 3.333v10.667c0 1.839 1.495 3.333 3.333 3.333h4c1.441 0 2.673-0.92 3.137-2.204 1.109 0.571 2.603 0.871 3.529 0.871h12.239c1.452 0 2.723-0.979 3.021-2.328 0.153-0.696 0.064-1.396-0.24-2.004 0.984-0.495 1.647-1.512 1.647-2.668 0-0.472-0.108-0.924-0.312-1.332 0.984-0.496 1.645-1.512 1.645-2.668zM29.188 20.645c-0.257 0.031-0.475 0.205-0.557 0.452-0.081 0.247-0.013 0.517 0.176 0.696 0.339 0.319 0.527 0.748 0.527 1.207 0 0.841-0.636 1.548-1.477 1.645-0.257 0.031-0.475 0.205-0.557 0.452-0.081 0.247-0.013 0.517 0.176 0.696 0.439 0.413 0.615 0.993 0.483 1.591-0.164 0.744-0.887 1.283-1.719 1.283h-12.239c-1.083 0-2.899-0.508-3.528-1.139-0.191-0.189-0.479-0.245-0.727-0.144-0.249 0.103-0.412 0.347-0.412 0.616 0 1.103-0.897 2-2 2h-4c-1.103 0-2-0.897-2-2v-10.667c0-1.103 0.897-2 2-2h6v0.667c0 0.231 0.12 0.445 0.317 0.568 0.195 0.117 0.44 0.129 0.648 0.028l1.333-0.667c0.135-0.067 0.243-0.179 0.307-0.316l4-8.667c0.040-0.088 0.061-0.184 0.061-0.28v-4.305c0.277-0.153 0.759-0.361 1.333-0.361 0.731 0 2.667 1.816 2.667 4 0 2.347-1.277 5.729-1.289 5.763-0.077 0.204-0.051 0.435 0.073 0.616 0.125 0.18 0.331 0.288 0.549 0.288h9.175c1.112 0 2.056 0.796 2.149 1.812 0.071 0.76-0.295 1.483-0.949 1.887-0.204 0.125-0.325 0.352-0.316 0.593s0.148 0.457 0.361 0.568c0.564 0.287 0.913 0.852 0.913 1.473 0 0.841-0.636 1.548-1.479 1.645z"></path>
<path d="M10 15.333c-0.368 0-0.667 0.299-0.667 0.667v12c0 0.368 0.299 0.667 0.667 0.667s0.667-0.299 0.667-0.667v-12c0-0.368-0.299-0.667-0.667-0.667z"></path>
</symbol>
</defs>
</svg>
